<svg width="28" height="28" viewBox="0 0 28 28" fill="none" xmlns="http://www.w3.org/2000/svg">
<path d="M14 7.53125C12.7206 7.53125 11.4699 7.91064 10.4062 8.62143C9.34237 9.33223 8.51326 10.3425 8.02365 11.5245C7.53405 12.7065 7.40595 14.0072 7.65555 15.262C7.90514 16.5168 8.52123 17.6694 9.4259 18.5741C10.3306 19.4788 11.4832 20.0949 12.738 20.3445C13.9928 20.5941 15.2935 20.466 16.4755 19.9763C17.6575 19.4867 18.6678 18.6576 19.3786 17.5938C20.0894 16.5301 20.4688 15.2794 20.4688 14C20.4687 12.2844 19.7872 10.639 18.5741 9.4259C17.361 8.21278 15.7156 7.53125 14 7.53125V7.53125ZM14 18.7812C13.0544 18.7812 12.13 18.5008 11.3437 17.9755C10.5574 17.4501 9.94458 16.7034 9.5827 15.8297C9.22082 14.956 9.12613 13.9947 9.31062 13.0672C9.49511 12.1398 9.95048 11.2878 10.6191 10.6191C11.2878 9.95048 12.1398 9.49511 13.0672 9.31062C13.9947 9.12613 14.956 9.22082 15.8297 9.5827C16.7034 9.94458 17.4501 10.5574 17.9755 11.3437C18.5008 12.13 18.7812 13.0544 18.7812 14C18.7775 15.2669 18.2726 16.4809 17.3768 17.3768C16.4809 18.2726 15.2669 18.7775 14 18.7812ZM20.1875 0.21875H7.8125C5.79851 0.21875 3.86701 1.0188 2.44291 2.44291C1.0188 3.86701 0.21875 5.79851 0.21875 7.8125V20.1875C0.21875 22.2015 1.0188 24.133 2.44291 25.5571C3.86701 26.9812 5.79851 27.7812 7.8125 27.7812H20.1875C22.2015 27.7812 24.133 26.9812 25.5571 25.5571C26.9812 24.133 27.7812 22.2015 27.7812 20.1875V7.8125C27.7812 5.79851 26.9812 3.86701 25.5571 2.44291C24.133 1.0188 22.2015 0.21875 20.1875 0.21875V0.21875ZM26.0938 20.1875C26.0937 21.7539 25.4715 23.2562 24.3638 24.3638C23.2562 25.4715 21.7539 26.0937 20.1875 26.0938H7.8125C6.24607 26.0937 4.74379 25.4715 3.63615 24.3638C2.52851 23.2562 1.90625 21.7539 1.90625 20.1875V7.8125C1.90625 6.24607 2.52851 4.74379 3.63615 3.63615C4.74379 2.52851 6.24607 1.90625 7.8125 1.90625H20.1875C21.7539 1.90625 23.2562 2.52851 24.3638 3.63615C25.4715 4.74379 26.0937 6.24607 26.0938 7.8125V20.1875ZM22.7188 6.6875C22.7188 6.96563 22.6363 7.23751 22.4818 7.46877C22.3272 7.70003 22.1076 7.88027 21.8506 7.98671C21.5937 8.09314 21.3109 8.12099 21.0382 8.06673C20.7654 8.01247 20.5148 7.87854 20.3181 7.68187C20.1215 7.4852 19.9875 7.23463 19.9333 6.96185C19.879 6.68906 19.9069 6.40631 20.0133 6.14935C20.1197 5.89239 20.3 5.67277 20.5312 5.51825C20.7625 5.36372 21.0344 5.28125 21.3125 5.28125C21.6855 5.28125 22.0431 5.42941 22.3069 5.69313C22.5706 5.95685 22.7188 6.31454 22.7188 6.6875Z" fill="#1F100A"/>
</svg>
