<svg width="30" height="30" viewBox="0 0 30 30" fill="none" xmlns="http://www.w3.org/2000/svg">
<g clip-path="url(#clip0_21_184)">
<path d="M15.4375 6.09375C15.4375 6.37188 15.355 6.64376 15.2005 6.87502C15.046 7.10628 14.8264 7.28652 14.5694 7.39296C14.3124 7.49939 14.0297 7.52724 13.7569 7.47298C13.4841 7.41872 13.2335 7.28479 13.0369 7.08812C12.8402 6.89145 12.7063 6.64088 12.652 6.3681C12.5978 6.09531 12.6256 5.81256 12.732 5.5556C12.8385 5.29864 13.0187 5.07902 13.25 4.9245C13.4812 4.76997 13.7531 4.6875 14.0312 4.6875C14.4042 4.6875 14.7619 4.83566 15.0256 5.09938C15.2893 5.3631 15.4375 5.72079 15.4375 6.09375ZM30.4375 1.875V21.5625C30.4375 22.0598 30.24 22.5367 29.8883 22.8883C29.5367 23.24 29.0598 23.4375 28.5625 23.4375H8.875C8.37772 23.4375 7.90081 23.24 7.54917 22.8883C7.19754 22.5367 7 22.0598 7 21.5625V1.875C7 1.37772 7.19754 0.900805 7.54917 0.549175C7.90081 0.197544 8.37772 0 8.875 0H28.5625C29.0598 0 29.5367 0.197544 29.8883 0.549175C30.24 0.900805 30.4375 1.37772 30.4375 1.875ZM28.5625 21.5625V1.875H8.875V21.5625H28.5625ZM14.0312 8.90625C13.7826 8.90625 13.5442 9.00502 13.3683 9.18084C13.1925 9.35665 13.0938 9.59511 13.0938 9.84375V17.3438C13.0938 17.5924 13.1925 17.8308 13.3683 18.0067C13.5442 18.1825 13.7826 18.2812 14.0312 18.2812C14.2799 18.2812 14.5183 18.1825 14.6942 18.0067C14.87 17.8308 14.9688 17.5924 14.9688 17.3438V9.84375C14.9688 9.59511 14.87 9.35665 14.6942 9.18084C14.5183 9.00502 14.2799 8.90625 14.0312 8.90625ZM21.0625 8.90625C20.2185 8.9062 19.3939 9.1593 18.6953 9.63281C18.644 9.40786 18.5116 9.20971 18.3234 9.07628C18.1352 8.94286 17.9044 8.88352 17.6751 8.90964C17.4459 8.93575 17.2343 9.04548 17.0809 9.21783C16.9276 9.39018 16.8431 9.61303 16.8438 9.84375V17.3438C16.8438 17.5924 16.9425 17.8308 17.1183 18.0067C17.2942 18.1825 17.5326 18.2812 17.7812 18.2812C18.0299 18.2812 18.2683 18.1825 18.4442 18.0067C18.62 17.8308 18.7188 17.5924 18.7188 17.3438V13.125C18.7188 12.5034 18.9657 11.9073 19.4052 11.4677C19.8448 11.0282 20.4409 10.7812 21.0625 10.7812C21.6841 10.7812 22.2802 11.0282 22.7198 11.4677C23.1593 11.9073 23.4062 12.5034 23.4062 13.125V17.3438C23.4062 17.5924 23.505 17.8308 23.6808 18.0067C23.8567 18.1825 24.0951 18.2812 24.3438 18.2812C24.5924 18.2812 24.8308 18.1825 25.0067 18.0067C25.1825 17.8308 25.2812 17.5924 25.2812 17.3438V13.125C25.2812 12.0061 24.8368 10.9331 24.0456 10.1419C23.2544 9.35072 22.1814 8.90625 21.0625 8.90625Z" fill="black"/>
</g>
<defs>
<clipPath id="clip0_21_184">
<rect width="30" height="30" fill="white"/>
</clipPath>
</defs>
</svg>
