<svg width="30" height="30" viewBox="0 0 30 30" fill="none" xmlns="http://www.w3.org/2000/svg">
<path d="M15 0.656251C12.4988 0.656658 10.0412 1.3111 7.87099 2.55463C5.70082 3.79816 3.89354 5.58755 2.62849 7.74525C1.36343 9.90295 0.684585 12.3539 0.659302 14.855C0.63402 17.3561 1.26318 19.8203 2.48436 22.0031L1.24686 26.3203C1.1458 26.6582 1.13805 27.0171 1.22441 27.3591C1.31077 27.701 1.48803 28.0132 1.73741 28.2626C1.98679 28.5119 2.29899 28.6892 2.64092 28.7756C2.98286 28.8619 3.34178 28.8542 3.67967 28.7531L7.99686 27.5156C9.90978 28.5866 12.0428 29.2049 14.2319 29.3229C16.4211 29.441 18.6082 29.0556 20.6251 28.1965C22.6421 27.3374 24.4353 26.0273 25.867 24.367C27.2987 22.7067 28.3308 20.7403 28.8839 18.6189C29.437 16.4975 29.4965 14.2775 29.0578 12.1295C28.619 9.98153 27.6938 7.96269 26.353 6.2281C25.0123 4.4935 23.2918 3.08932 21.3237 2.12342C19.3556 1.15752 17.1923 0.655612 15 0.656251ZM15 27.6562C12.7284 27.6556 10.4989 27.0436 8.54529 25.8844C8.41101 25.8127 8.26155 25.7741 8.10936 25.7719C8.03326 25.7673 7.95698 25.7768 7.88436 25.8L3.21561 27.1359C3.16674 27.151 3.1147 27.1524 3.06507 27.1401C3.01545 27.1278 2.97012 27.1022 2.93397 27.066C2.89781 27.0299 2.8722 26.9845 2.85988 26.9349C2.84756 26.8853 2.849 26.8332 2.86404 26.7844L4.19998 22.1156C4.23152 22.0055 4.2403 21.8901 4.2258 21.7765C4.21129 21.6628 4.1738 21.5534 4.11561 21.4547C2.69146 19.0527 2.10168 16.2471 2.43815 13.475C2.77461 10.7029 4.01842 8.11994 5.97583 6.12839C7.93324 4.13683 10.4943 2.84855 13.2602 2.4642C16.0261 2.07986 18.8414 2.62104 21.2677 4.00344C23.6939 5.38584 25.5949 7.53185 26.6744 10.1072C27.754 12.6825 27.9515 15.5426 27.2362 18.2419C26.5209 20.9411 24.933 23.3281 22.7198 25.0309C20.5066 26.7337 17.7924 27.6567 15 27.6562ZM22.2422 17.3625L19.3594 15.7172C19.0559 15.546 18.7125 15.4584 18.3641 15.4634C18.0158 15.4683 17.675 15.5656 17.3765 15.7453L15.5765 16.8281C14.5535 16.2838 13.7162 15.4465 13.1719 14.4234L14.2547 12.6234C14.4344 12.325 14.5317 11.9842 14.5366 11.6358C14.5415 11.2875 14.454 10.9441 14.2828 10.6406L12.6375 7.75781C12.4777 7.4811 12.2482 7.2511 11.9719 7.09072C11.6955 6.93034 11.382 6.84519 11.0625 6.84375C9.79685 6.84375 8.58284 7.34555 7.68659 8.23917C6.79033 9.13279 6.28495 10.3453 6.28123 11.6109C6.27938 13.2003 6.59083 14.7744 7.19777 16.2433C7.80471 17.7122 8.69524 19.0471 9.81843 20.1716C10.9416 21.2961 12.2755 22.1882 13.7437 22.7968C15.2119 23.4055 16.7856 23.7188 18.375 23.7188H18.389C19.6547 23.715 20.8672 23.2096 21.7608 22.3134C22.6544 21.4171 23.1562 20.2031 23.1562 18.9375C23.1548 18.618 23.0696 18.3044 22.9093 18.0281C22.7489 17.7517 22.5189 17.5223 22.2422 17.3625ZM18.389 22.0312H18.375C15.6138 22.0275 12.9669 20.928 11.0158 18.9742C9.06465 17.0205 7.96873 14.3721 7.96873 11.6109C7.97245 10.7929 8.30004 10.0096 8.87983 9.43241C9.45961 8.85526 10.2444 8.53124 11.0625 8.53125C11.1058 8.5348 11.1461 8.55495 11.175 8.5875L12.8203 11.4703C12.8429 11.5143 12.8535 11.5634 12.851 11.6128C12.8485 11.6622 12.8331 11.7101 12.8062 11.7516L11.4984 13.9594C11.4244 14.073 11.3804 14.2036 11.3705 14.3388C11.3607 14.4741 11.3853 14.6097 11.4422 14.7328C12.211 16.4296 13.5704 17.789 15.2672 18.5578C15.3903 18.6146 15.5259 18.6393 15.6611 18.6294C15.7964 18.6196 15.927 18.5756 16.0406 18.5016L18.2484 17.1938C18.2899 17.1669 18.3378 17.1515 18.3872 17.149C18.4365 17.1465 18.4857 17.1571 18.5297 17.1797L21.4125 18.825C21.445 18.8538 21.4652 18.8942 21.4687 18.9375C21.4687 19.7556 21.1447 20.5404 20.5676 21.1202C19.9904 21.6999 19.2071 22.0275 18.389 22.0312Z" fill="#1F100A"/>
</svg>
